<mxfile host="Electron" agent="Mozilla/5.0 (Windows NT 10.0; Win64; x64) AppleWebKit/537.36 (KHTML, like Gecko) draw.io/25.0.2 Chrome/128.0.6613.186 Electron/32.2.5 Safari/537.36" version="25.0.2">
  <diagram name="Page-1" id="AFvAjjbJYYsx2SpcHiKp">
    <mxGraphModel dx="588" dy="379" grid="1" gridSize="10" guides="1" tooltips="1" connect="1" arrows="1" fold="1" page="1" pageScale="1" pageWidth="1169" pageHeight="827" math="0" shadow="0">
      <root>
        <mxCell id="0" />
        <mxCell id="1" parent="0" />
        <mxCell id="pw5bhS6RdDmQjml_jfkz-6" style="edgeStyle=orthogonalEdgeStyle;rounded=0;orthogonalLoop=1;jettySize=auto;html=1;" edge="1" parent="1" source="pw5bhS6RdDmQjml_jfkz-2" target="pw5bhS6RdDmQjml_jfkz-3">
          <mxGeometry relative="1" as="geometry" />
        </mxCell>
        <mxCell id="pw5bhS6RdDmQjml_jfkz-2" value="" style="ellipse;whiteSpace=wrap;html=1;aspect=fixed;" vertex="1" parent="1">
          <mxGeometry x="310" y="60" width="80" height="80" as="geometry" />
        </mxCell>
        <mxCell id="pw5bhS6RdDmQjml_jfkz-3" value="" style="ellipse;whiteSpace=wrap;html=1;aspect=fixed;" vertex="1" parent="1">
          <mxGeometry x="310" y="170" width="80" height="80" as="geometry" />
        </mxCell>
        <mxCell id="pw5bhS6RdDmQjml_jfkz-4" value="" style="ellipse;whiteSpace=wrap;html=1;aspect=fixed;" vertex="1" parent="1">
          <mxGeometry x="310" y="340" width="80" height="80" as="geometry" />
        </mxCell>
        <mxCell id="pw5bhS6RdDmQjml_jfkz-5" value="" style="ellipse;whiteSpace=wrap;html=1;aspect=fixed;" vertex="1" parent="1">
          <mxGeometry x="310" y="450" width="80" height="80" as="geometry" />
        </mxCell>
        <mxCell id="pw5bhS6RdDmQjml_jfkz-7" value="" style="edgeStyle=none;orthogonalLoop=1;jettySize=auto;html=1;rounded=0;endArrow=none;endFill=0;" edge="1" parent="1">
          <mxGeometry width="80" relative="1" as="geometry">
            <mxPoint x="130" y="290" as="sourcePoint" />
            <mxPoint x="570" y="290" as="targetPoint" />
            <Array as="points" />
          </mxGeometry>
        </mxCell>
        <mxCell id="pw5bhS6RdDmQjml_jfkz-9" value="" style="ellipse;whiteSpace=wrap;html=1;aspect=fixed;" vertex="1" parent="1">
          <mxGeometry x="430" y="170" width="80" height="80" as="geometry" />
        </mxCell>
      </root>
    </mxGraphModel>
  </diagram>
</mxfile>
